<?xml version="1.0" encoding="utf-8"?>
<!-- Generator: Adobe Illustrator 23.0.3, SVG Export Plug-In . SVG Version: 6.00 Build 0)  -->
<svg version="1.1" id="Layer_1" xmlns="http://www.w3.org/2000/svg" xmlns:xlink="http://www.w3.org/1999/xlink" x="0px" y="0px"
	 viewBox="0 0 615.8 393.6" style="enable-background:new 0 0 615.8 393.6;" xml:space="preserve">
<style type="text/css">
	.st0{fill:#EE0000;}
	.st1{fill:#595959;}
	.st2{fill:#EC2636;}
	.st3{enable-background:new    ;}
	.st4{fill:#FFFFFF;}
</style>
<g>
	<title>Logo-Red_Hat-Premier_Bus_Partner-A-Standard-RGB</title>
	<g id="Business_Partner">
		<rect x="2" y="201.8" class="st0" width="611.8" height="91.8"/>
		<rect x="2" y="299.9" class="st1" width="611.8" height="91.6"/>
		<path d="M581.2,94.3c0,11.9,7.2,17.7,20.2,17.7c4-0.1,8-0.7,11.9-1.7V96.5c-2.5,0.8-5.1,1.2-7.7,1.2c-5.4,0-7.4-1.7-7.4-6.7V69.8
			h15.6V55.6h-15.6v-18l-17,3.7v14.3H570v14.2h11.2L581.2,94.3z M528.2,94.6c0-3.7,3.7-5.5,9.3-5.5c3.4,0,6.8,0.4,10.1,1.3v7.2
			c-3.2,1.8-6.9,2.7-10.6,2.6C531.5,100.2,528.3,98.1,528.2,94.6 M533.5,112.2c6,0,10.8-1.3,15.4-4.3v3.4h16.8V75.6
			c0-13.6-9.2-21-24.4-21c-8.5,0-16.9,2-26,6.1l6.1,12.5c6.5-2.7,12-4.4,16.8-4.4c7,0,10.6,2.7,10.6,8.3v2.7
			c-4.1-1.1-8.4-1.6-12.6-1.6c-14.3,0-22.9,6-22.9,16.7C513.3,104.8,521,112.2,533.5,112.2 M441,111.3h18.1V82.4h30.3v28.8h18.1
			V37.6h-18.1v28.3h-30.3V37.6H441L441,111.3z M372.1,83.4c0-8,6.3-14.1,14.6-14.1c4.3-0.1,8.5,1.4,11.8,4.3V93
			c-3.2,3-7.4,4.6-11.8,4.4C378.5,97.4,372.1,91.3,372.1,83.4 M398.7,111.2h16.8V33.9l-17,3.7v20.9c-4.3-2.5-9.2-3.7-14.2-3.7
			c-16.2,0-28.9,12.5-28.9,28.5c-0.2,15.6,12.3,28.4,27.9,28.6c0.2,0,0.3,0,0.5,0c5.4,0,10.6-1.7,14.9-4.8L398.7,111.2z M321.5,68.5
			c5.4,0,9.9,3.5,11.7,8.8H310C311.7,71.8,315.9,68.5,321.5,68.5 M292.8,83.5c0,16.2,13.2,28.8,30.3,28.8c9.4,0,16.2-2.5,23.2-8.4
			l-11.3-10c-2.6,2.7-6.5,4.2-11.1,4.2c-5.9,0.2-11.4-3.3-13.7-8.8h39.6v-4.2c0-17.7-11.9-30.4-28.1-30.4
			c-15.8-0.2-28.8,12.4-29,28.1C292.8,83,292.8,83.2,292.8,83.5 M263.5,53.1c6,0,9.4,3.8,9.4,8.3s-3.4,8.3-9.4,8.3h-17.9V53.1H263.5
			z M227.5,111.2h18.1V84.4h13.8l13.9,26.8h20.2l-16.2-29.5c8.4-3.4,13.9-11.6,13.9-20.7c0-13.2-10.4-23.5-26-23.5h-37.6
			L227.5,111.2z"/>
		<path class="st2" d="M129,85c12.5,0,30.6-2.6,30.6-17.5c0-1.1-0.1-2.3-0.3-3.4l-7.4-32.4c-1.7-7.1-3.2-10.4-15.7-16.6
			C126.4,10.2,105.3,2,99,2c-5.8,0-7.6,7.5-14.4,7.5c-6.7,0-11.6-5.6-17.9-5.6c-6,0-9.9,4.1-12.9,12.5c0,0-8.4,23.7-9.5,27.2
			c-0.2,0.6-0.3,1.3-0.2,1.9C44,54.8,80.3,85,129,85 M161.6,73.6c1.7,8.2,1.7,9.1,1.7,10.1c0,14-15.7,21.8-36.4,21.8
			C80,105.5,39.1,78.1,39.1,60c0-2.5,0.5-5,1.5-7.3C23.8,53.5,2,56.5,2,75.7C2,107.2,76.6,146,135.6,146c45.3,0,56.7-20.5,56.7-36.7
			C192.3,96.6,181.3,82.2,161.6,73.6"/>
		<path d="M161.5,73.6c1.7,8.2,1.7,9.1,1.7,10.1c0,14-15.7,21.8-36.4,21.8C80,105.5,39.1,78.1,39.1,60c0-2.5,0.5-5,1.5-7.3l3.7-9.1
			c-0.2,0.6-0.3,1.3-0.2,1.9C44,54.8,80.3,85,129,85c12.5,0,30.6-2.6,30.6-17.5c0-1.1-0.1-2.3-0.3-3.4L161.5,73.6z"/>
		<path class="st0" d="M129,85c12.5,0,30.6-2.6,30.6-17.5c0-1.1-0.1-2.3-0.3-3.4l-7.4-32.4c-1.7-7.1-3.2-10.4-15.7-16.6
			C126.4,10.2,105.3,2,99,2c-5.8,0-7.6,7.5-14.4,7.5c-6.7,0-11.6-5.6-17.9-5.6c-6,0-9.9,4.1-12.9,12.5c0,0-8.4,23.7-9.5,27.2
			c-0.2,0.6-0.3,1.3-0.2,1.9C44,54.8,80.3,85,129,85 M161.6,73.6c1.7,8.2,1.7,9.1,1.7,10.1c0,14-15.7,21.8-36.4,21.8
			C80,105.5,39.1,78.1,39.1,60c0-2.5,0.5-5,1.5-7.3C23.8,53.5,2,56.5,2,75.7C2,107.2,76.6,146,135.6,146c45.3,0,56.7-20.5,56.7-36.7
			C192.3,96.6,181.3,82.2,161.6,73.6"/>
		<path d="M161.5,73.6c1.7,8.2,1.7,9.1,1.7,10.1c0,14-15.7,21.8-36.4,21.8C80,105.5,39.1,78.1,39.1,60c0-2.5,0.5-5,1.5-7.3l3.7-9.1
			c-0.2,0.6-0.3,1.3-0.2,1.9C44,54.8,80.3,85,129,85c12.5,0,30.6-2.6,30.6-17.5c0-1.1-0.1-2.3-0.3-3.4L161.5,73.6z"/>
		<g class="st3">
			<path class="st4" d="M35.3,266v-36.2h18.2c1.8,0,3.4,0.3,4.9,0.9c1.5,0.6,2.8,1.4,3.9,2.4c1.1,1,1.9,2.2,2.5,3.6
				c0.6,1.4,0.9,2.9,0.9,4.6c0,1.6-0.3,3.1-0.9,4.5c-0.6,1.4-1.4,2.5-2.5,3.5c-1.1,1-2.4,1.8-3.9,2.3c-1.5,0.6-3.1,0.8-4.9,0.8H42.8
				V266H35.3z M52.6,236.3h-9.8v9.9h9.8c1.6,0,2.9-0.4,3.9-1.3c1-0.9,1.5-2.1,1.5-3.6s-0.5-2.7-1.5-3.6
				C55.5,236.7,54.2,236.3,52.6,236.3z"/>
		</g>
		<g class="st3">
			<path class="st4" d="M69.5,266v-27h7.1v3c0.9-1.2,1.9-2.1,3.1-2.7c1.2-0.6,2.6-0.9,4.1-0.9c0.7,0,1.3,0.1,1.7,0.2
				s0.9,0.2,1.2,0.4v6.2c-0.5-0.2-1.1-0.4-1.7-0.5c-0.6-0.1-1.3-0.2-1.9-0.2c-1.4,0-2.6,0.3-3.8,1c-1.2,0.7-2.1,1.7-2.7,3V266H69.5z
				"/>
		</g>
		<g class="st3">
			<path class="st4" d="M112.9,262.7c-1.7,1.3-3.4,2.3-5.1,2.9c-1.7,0.6-3.7,0.9-5.8,0.9c-2,0-3.9-0.4-5.7-1.1
				c-1.8-0.7-3.3-1.7-4.6-2.9c-1.3-1.2-2.3-2.7-3.1-4.4c-0.7-1.7-1.1-3.5-1.1-5.5c0-1.9,0.4-3.8,1.1-5.5c0.7-1.7,1.7-3.2,2.9-4.5
				c1.2-1.3,2.7-2.3,4.4-3c1.7-0.7,3.5-1.1,5.5-1.1c1.9,0,3.7,0.4,5.3,1.1c1.6,0.7,3.1,1.8,4.2,3c1.2,1.3,2.1,2.8,2.8,4.6
				c0.7,1.8,1,3.7,1,5.8v1.9H94.7c0.5,1.7,1.4,3.1,2.8,4.1s3,1.6,4.9,1.6c1.2,0,2.3-0.2,3.3-0.6c1-0.4,1.9-0.9,2.6-1.6L112.9,262.7z
				 M101.2,244.5c-1.6,0-3,0.5-4.2,1.5c-1.2,1-2,2.3-2.4,4h13.2c-0.4-1.6-1.3-2.9-2.5-3.9S102.8,244.5,101.2,244.5z"/>
			<path class="st4" d="M118.6,266v-27h7.1v2c1-0.8,2-1.5,3.2-1.9c1.2-0.4,2.4-0.6,3.8-0.6c1.7,0,3.3,0.4,4.7,1.1
				c1.4,0.7,2.5,1.7,3.4,3c1.1-1.3,2.4-2.3,3.9-3c1.5-0.7,3.2-1,5-1c3,0,5.5,1,7.4,3c1.9,2,2.9,4.6,2.9,7.7V266h-7.1v-15.7
				c0-1.7-0.5-3.1-1.4-4.1c-0.9-1-2.1-1.6-3.7-1.6c-1.1,0-2,0.2-2.9,0.7s-1.6,1.1-2.3,2c0,0.3,0.1,0.6,0.1,0.9c0,0.3,0.1,0.6,0.1,1
				V266h-7.1v-15.7c0-1.7-0.5-3.1-1.4-4.1c-0.9-1-2.1-1.6-3.7-1.6c-1.1,0-2,0.2-2.8,0.6c-0.8,0.4-1.6,1-2.2,1.8V266H118.6z"/>
			<path class="st4" d="M168.5,235.9c-1.1,0-2.1-0.4-2.8-1.2c-0.8-0.8-1.2-1.7-1.2-2.8c0-1.1,0.4-2.1,1.2-2.8
				c0.8-0.8,1.7-1.2,2.8-1.2c1.1,0,2.1,0.4,2.8,1.2c0.8,0.8,1.2,1.7,1.2,2.8c0,1.1-0.4,2.1-1.2,2.8
				C170.5,235.5,169.6,235.9,168.5,235.9z M172,239.1v27h-7.1v-27H172z"/>
			<path class="st4" d="M201.2,262.7c-1.7,1.3-3.4,2.3-5.1,2.9c-1.7,0.6-3.7,0.9-5.8,0.9c-2,0-3.9-0.4-5.7-1.1
				c-1.8-0.7-3.3-1.7-4.6-2.9c-1.3-1.2-2.3-2.7-3.1-4.4c-0.7-1.7-1.1-3.5-1.1-5.5c0-1.9,0.4-3.8,1.1-5.5c0.7-1.7,1.7-3.2,2.9-4.5
				c1.2-1.3,2.7-2.3,4.4-3c1.7-0.7,3.5-1.1,5.5-1.1c1.9,0,3.7,0.4,5.3,1.1c1.6,0.7,3.1,1.8,4.2,3c1.2,1.3,2.1,2.8,2.8,4.6
				c0.7,1.8,1,3.7,1,5.8v1.9H183c0.5,1.7,1.4,3.1,2.8,4.1s3,1.6,4.9,1.6c1.2,0,2.3-0.2,3.3-0.6c1-0.4,1.9-0.9,2.6-1.6L201.2,262.7z
				 M189.5,244.5c-1.6,0-3,0.5-4.2,1.5c-1.2,1-2,2.3-2.4,4h13.2c-0.4-1.6-1.3-2.9-2.5-3.9S191.1,244.5,189.5,244.5z"/>
			<path class="st4" d="M206.9,266v-27h7.1v3c0.9-1.2,1.9-2.1,3.1-2.7c1.2-0.6,2.6-0.9,4.1-0.9c0.7,0,1.3,0.1,1.7,0.2
				s0.9,0.2,1.2,0.4v6.2c-0.5-0.2-1.1-0.4-1.7-0.5c-0.6-0.1-1.3-0.2-1.9-0.2c-1.4,0-2.6,0.3-3.8,1c-1.2,0.7-2.1,1.7-2.7,3V266H206.9
				z"/>
		</g>
		<g class="st3">
			<path class="st4" d="M35.2,327.7h17c3.6,0,6.6,0.9,8.8,2.8s3.4,4.2,3.4,7.2c0,1.6-0.4,3-1.2,4.3c-0.8,1.3-1.9,2.4-3.3,3.3
				c1.7,0.8,3.1,2,4.1,3.4s1.6,3,1.6,4.8c0,3.1-1.2,5.7-3.5,7.6c-2.3,1.9-5.4,2.9-9.2,2.9H35.2V327.7z M51.7,333.9h-9.1v8.6h9.1
				c1.6,0,2.9-0.4,3.8-1.2c1-0.8,1.4-1.8,1.4-3.1c0-1.3-0.5-2.4-1.4-3.1C54.6,334.3,53.3,333.9,51.7,333.9z M52.4,357.7
				c1.7,0,3.1-0.4,4.1-1.3c1-0.8,1.6-2,1.6-3.4c0-1.4-0.5-2.5-1.6-3.4c-1-0.9-2.4-1.3-4.1-1.3h-9.8v9.4H52.4z"/>
		</g>
		<g class="st3">
			<path class="st4" d="M76.3,336.9v15.7c0,1.7,0.5,3.1,1.5,4.1c1,1,2.4,1.6,4.1,1.6c1.2,0,2.3-0.2,3.2-0.7c0.9-0.5,1.7-1.1,2.4-2
				v-18.7h7.1v27h-7.1v-2.2c-1,0.9-2.2,1.5-3.5,2c-1.3,0.5-2.7,0.7-4.1,0.7c-3.1,0-5.7-1-7.7-3c-2-2-3-4.6-3-7.7v-16.7H76.3z"/>
			<path class="st4" d="M97.3,360.7l3.5-4.7c1.6,1,3.1,1.8,4.5,2.3c1.4,0.5,2.8,0.8,4.2,0.8c1.6,0,2.9-0.3,3.8-0.8
				c0.9-0.5,1.4-1.2,1.4-2.1c0-0.7-0.3-1.2-0.8-1.7c-0.5-0.4-1.4-0.7-2.6-0.9l-5.2-0.8c-2.7-0.4-4.7-1.3-6.1-2.6
				c-1.4-1.3-2.1-3.1-2.1-5.2c0-2.6,1-4.7,3.1-6.2c2-1.6,4.8-2.3,8.2-2.3c2,0,3.9,0.3,5.7,0.9c1.9,0.6,3.6,1.4,5.3,2.5l-3.4,4.6
				c-1.5-0.9-2.9-1.5-4.2-1.9s-2.7-0.6-4.1-0.6c-1.3,0-2.3,0.2-3.1,0.7c-0.8,0.5-1.2,1.1-1.2,1.9c0,0.7,0.3,1.3,0.9,1.7
				c0.6,0.4,1.5,0.7,2.8,0.9l5.2,0.8c2.6,0.4,4.6,1.2,6.1,2.6c1.4,1.3,2.1,3.1,2.1,5.1c0,1.3-0.3,2.5-0.9,3.5
				c-0.6,1.1-1.4,2-2.5,2.8c-1,0.8-2.3,1.4-3.7,1.9c-1.4,0.4-3,0.7-4.7,0.7c-2.5,0-4.7-0.3-6.9-1C100.7,362.8,98.8,361.9,97.3,360.7
				z"/>
			<path class="st4" d="M128,333.7c-1.1,0-2.1-0.4-2.8-1.2c-0.8-0.8-1.2-1.7-1.2-2.8c0-1.1,0.4-2.1,1.2-2.8c0.8-0.8,1.7-1.2,2.8-1.2
				c1.1,0,2.1,0.4,2.8,1.2c0.8,0.8,1.2,1.7,1.2,2.8c0,1.1-0.4,2.1-1.2,2.8C130,333.3,129.1,333.7,128,333.7z M131.6,336.9v27h-7.1
				v-27H131.6z"/>
			<path class="st4" d="M136.6,363.9v-27h7.1v2.1c1-0.9,2.2-1.5,3.4-2c1.3-0.4,2.6-0.7,4.1-0.7c3.1,0,5.7,1,7.7,3c2,2,3,4.6,3,7.7
				v16.8h-7.1v-15.7c0-1.7-0.5-3.1-1.5-4.1c-1-1-2.4-1.6-4.1-1.6c-1.2,0-2.2,0.2-3.2,0.7c-0.9,0.5-1.7,1.1-2.4,2v18.7H136.6z"/>
		</g>
		<g class="st3">
			<path class="st4" d="M190.9,360.5c-1.7,1.3-3.4,2.3-5.1,2.9c-1.7,0.6-3.7,0.9-5.8,0.9c-2,0-3.9-0.4-5.7-1.1
				c-1.8-0.7-3.3-1.7-4.6-2.9c-1.3-1.2-2.3-2.7-3.1-4.4c-0.7-1.7-1.1-3.5-1.1-5.5c0-1.9,0.4-3.8,1.1-5.5c0.7-1.7,1.7-3.2,2.9-4.5
				c1.2-1.3,2.7-2.3,4.4-3c1.7-0.7,3.5-1.1,5.5-1.1c1.9,0,3.7,0.4,5.3,1.1c1.6,0.7,3.1,1.8,4.2,3c1.2,1.3,2.1,2.8,2.8,4.6
				c0.7,1.8,1,3.7,1,5.8v1.9h-20.1c0.5,1.7,1.4,3.1,2.8,4.1s3,1.6,4.9,1.6c1.2,0,2.3-0.2,3.3-0.6c1-0.4,1.9-0.9,2.6-1.6L190.9,360.5
				z M179.2,342.3c-1.6,0-3,0.5-4.2,1.5c-1.2,1-2,2.3-2.4,4h13.2c-0.4-1.6-1.3-2.9-2.5-3.9S180.8,342.3,179.2,342.3z"/>
		</g>
		<g class="st3">
			<path class="st4" d="M194.5,360.7l3.5-4.7c1.6,1,3.1,1.8,4.5,2.3c1.4,0.5,2.8,0.8,4.2,0.8c1.6,0,2.9-0.3,3.8-0.8
				c0.9-0.5,1.4-1.2,1.4-2.1c0-0.7-0.3-1.2-0.8-1.7c-0.5-0.4-1.4-0.7-2.6-0.9l-5.2-0.8c-2.7-0.4-4.7-1.3-6.1-2.6
				c-1.4-1.3-2.1-3.1-2.1-5.2c0-2.6,1-4.7,3.1-6.2c2-1.6,4.8-2.3,8.2-2.3c2,0,3.9,0.3,5.7,0.9s3.6,1.4,5.3,2.5l-3.4,4.6
				c-1.5-0.9-2.9-1.5-4.2-1.9s-2.7-0.6-4.1-0.6c-1.3,0-2.3,0.2-3.1,0.7c-0.8,0.5-1.2,1.1-1.2,1.9c0,0.7,0.3,1.3,0.9,1.7
				c0.6,0.4,1.5,0.7,2.8,0.9l5.2,0.8c2.6,0.4,4.6,1.2,6.1,2.6c1.4,1.3,2.1,3.1,2.1,5.1c0,1.3-0.3,2.5-0.9,3.5
				c-0.6,1.1-1.4,2-2.5,2.8c-1,0.8-2.3,1.4-3.7,1.9s-3,0.7-4.7,0.7c-2.5,0-4.7-0.3-6.9-1C197.9,362.8,196.1,361.9,194.5,360.7z"/>
		</g>
		<g class="st3">
			<path class="st4" d="M219.5,360.7l3.5-4.7c1.6,1,3.1,1.8,4.5,2.3c1.4,0.5,2.8,0.8,4.2,0.8c1.6,0,2.9-0.3,3.8-0.8
				c0.9-0.5,1.4-1.2,1.4-2.1c0-0.7-0.3-1.2-0.8-1.7c-0.5-0.4-1.4-0.7-2.6-0.9l-5.2-0.8c-2.7-0.4-4.7-1.3-6.1-2.6
				c-1.4-1.3-2.1-3.1-2.1-5.2c0-2.6,1-4.7,3.1-6.2c2-1.6,4.8-2.3,8.2-2.3c2,0,3.9,0.3,5.7,0.9s3.6,1.4,5.3,2.5l-3.4,4.6
				c-1.5-0.9-2.9-1.5-4.2-1.9s-2.7-0.6-4.1-0.6c-1.3,0-2.3,0.2-3.1,0.7c-0.8,0.5-1.2,1.1-1.2,1.9c0,0.7,0.3,1.3,0.9,1.7
				c0.6,0.4,1.5,0.7,2.8,0.9l5.2,0.8c2.6,0.4,4.6,1.2,6.1,2.6c1.4,1.3,2.1,3.1,2.1,5.1c0,1.3-0.3,2.5-0.9,3.5
				c-0.6,1.1-1.4,2-2.5,2.8c-1,0.8-2.3,1.4-3.7,1.9s-3,0.7-4.7,0.7c-2.5,0-4.7-0.3-6.9-1C222.9,362.8,221.1,361.9,219.5,360.7z"/>
		</g>
		<g class="st3">
			<path class="st4" d="M257.1,363.9v-36.2h18.2c1.8,0,3.4,0.3,4.9,0.9c1.5,0.6,2.8,1.4,3.9,2.4c1.1,1,1.9,2.2,2.5,3.6
				c0.6,1.4,0.9,2.9,0.9,4.6c0,1.6-0.3,3.1-0.9,4.5c-0.6,1.4-1.4,2.5-2.5,3.5c-1.1,1-2.4,1.8-3.9,2.3c-1.5,0.6-3.1,0.8-4.9,0.8
				h-10.7v13.7H257.1z M274.4,334.2h-9.8v9.9h9.8c1.6,0,2.9-0.4,3.9-1.3c1-0.9,1.5-2.1,1.5-3.6s-0.5-2.7-1.5-3.6
				C277.3,334.6,276,334.2,274.4,334.2z"/>
		</g>
		<g class="st3">
			<path class="st4" d="M298.7,364.4c-2.9,0-5.3-0.8-7.1-2.3c-1.8-1.5-2.7-3.5-2.7-6c0-2.6,1-4.6,2.9-6c2-1.4,4.7-2.2,8.1-2.2
				c1.1,0,2.2,0.1,3.3,0.3c1.1,0.2,2.2,0.4,3.3,0.8V347c0-1.6-0.5-2.7-1.4-3.5c-1-0.8-2.4-1.2-4.2-1.2c-1.1,0-2.4,0.2-3.7,0.5
				c-1.3,0.4-2.8,0.9-4.5,1.7l-2.6-5.2c2.1-1,4.1-1.7,6.1-2.2c2-0.5,3.9-0.7,5.9-0.7c3.6,0,6.4,0.9,8.5,2.6c2,1.7,3,4.2,3,7.4v17.5
				h-7V362c-1.1,0.8-2.3,1.4-3.6,1.8C301.7,364.2,300.3,364.4,298.7,364.4z M295.7,355.9c0,1,0.4,1.9,1.3,2.5
				c0.9,0.6,2.1,0.9,3.6,0.9c1.2,0,2.3-0.1,3.2-0.4c1-0.3,1.9-0.7,2.7-1.3v-4c-0.9-0.3-1.8-0.6-2.7-0.8c-0.9-0.2-1.9-0.2-3-0.2
				c-1.6,0-2.9,0.3-3.8,0.9C296.1,354.1,295.7,354.9,295.7,355.9z"/>
		</g>
		<g class="st3">
			<path class="st4" d="M318.4,363.9v-27h7.1v3c0.9-1.2,1.9-2.1,3.1-2.7c1.2-0.6,2.6-0.9,4.1-0.9c0.7,0,1.3,0.1,1.7,0.2
				s0.9,0.2,1.2,0.4v6.2c-0.5-0.2-1.1-0.4-1.7-0.5c-0.6-0.1-1.3-0.2-1.9-0.2c-1.4,0-2.6,0.3-3.8,1c-1.2,0.7-2.1,1.7-2.7,3v17.4
				H318.4z"/>
		</g>
		<g class="st3">
			<path class="st4" d="M343,356.3v-13.4h-5.5v-6h5.5v-6.9l7.1-1.6v8.5h7.7v6h-7.7v12c0,1.3,0.3,2.2,0.8,2.7
				c0.6,0.5,1.5,0.8,2.9,0.8c0.7,0,1.3,0,1.9-0.1c0.6-0.1,1.2-0.2,1.9-0.5v5.8c-0.8,0.2-1.7,0.4-2.7,0.6c-1.1,0.2-2,0.2-2.7,0.2
				c-3,0-5.3-0.7-6.8-2C343.8,360.9,343,358.9,343,356.3z"/>
			<path class="st4" d="M360.8,363.9v-27h7.1v2.1c1-0.9,2.2-1.5,3.4-2c1.3-0.4,2.6-0.7,4.1-0.7c3.1,0,5.7,1,7.7,3s3,4.6,3,7.7v16.8
				H379v-15.7c0-1.7-0.5-3.1-1.5-4.1c-1-1-2.4-1.6-4.1-1.6c-1.2,0-2.2,0.2-3.2,0.7s-1.7,1.1-2.4,2v18.7H360.8z"/>
			<path class="st4" d="M415.1,360.5c-1.7,1.3-3.4,2.3-5.1,2.9s-3.7,0.9-5.8,0.9c-2,0-3.9-0.4-5.7-1.1c-1.8-0.7-3.3-1.7-4.6-2.9
				c-1.3-1.2-2.3-2.7-3.1-4.4c-0.7-1.7-1.1-3.5-1.1-5.5c0-1.9,0.4-3.8,1.1-5.5c0.7-1.7,1.7-3.2,2.9-4.5c1.2-1.3,2.7-2.3,4.4-3
				c1.7-0.7,3.5-1.1,5.5-1.1c1.9,0,3.7,0.4,5.3,1.1c1.6,0.7,3.1,1.8,4.2,3c1.2,1.3,2.1,2.8,2.8,4.6c0.7,1.8,1,3.7,1,5.8v1.9h-20.1
				c0.5,1.7,1.4,3.1,2.8,4.1c1.4,1,3,1.6,4.9,1.6c1.2,0,2.3-0.2,3.3-0.6c1-0.4,1.9-0.9,2.6-1.6L415.1,360.5z M403.4,342.3
				c-1.6,0-3,0.5-4.2,1.5c-1.2,1-2,2.3-2.4,4H410c-0.4-1.6-1.3-2.9-2.5-3.9S405,342.3,403.4,342.3z"/>
			<path class="st4" d="M420.8,363.9v-27h7.1v3c0.9-1.2,1.9-2.1,3.1-2.7s2.6-0.9,4.1-0.9c0.7,0,1.3,0.1,1.7,0.2
				c0.5,0.1,0.9,0.2,1.2,0.4v6.2c-0.5-0.2-1.1-0.4-1.7-0.5s-1.3-0.2-1.9-0.2c-1.4,0-2.6,0.3-3.8,1c-1.2,0.7-2.1,1.7-2.7,3v17.4
				H420.8z"/>
		</g>
	</g>
</g>
</svg>
